/* XPM */
static char *graphic[] = {
/* width height num_colors chars_per_pixel */
"16 16 200 2", 
/* colors */
"   c None",
".  c None",
"X  c None",
"o  c None",
"O  c #E5A934",
"+  c #859EAC",
"@  c None",
"#  c None",
"$  c #DEA53F",
"%  c #7B9DBE",
"&  c #708CB0",
"*  c None",
"=  c #84A9C7",
"-  c #C08F41",
";  c #7E91A4",
":  c #7AA2D4",
">  c #84A2B6",
",  c #779CC8",
"<  c #79949F",
"1  c #929588",
"2  c #9DA59C",
"3  c #EBCD7B",
"4  c #739FD5",
"5  c #8AA5BF",
"6  c #F7CC5D",
"7  c #9DA388",
"8  c None",
"9  c #F8D76D",
"0  c None",
"q  c #9AB0AF",
"w  c None",
"e  c #F8D168",
"r  c #EDB545",
"t  c None",
"y  c None",
"u  c #B7B26F",
"i  c None",
"p  c #FAD15E",
"a  c #F4C960",
"s  c #7C919A",
"d  c #899494",
"f  c None",
"g  c #AA9F75",
"h  c None",
"j  c #88A5B4",
"k  c #729CCE",
"l  c #F5DC8F",
"z  c #DD9C35",
"x  c #D8A03C",
"c  c #F1BC43",
"v  c #C39D41",
"b  c #F0D581",
"n  c #969E84",
"m  c #798899",
"M  c None",
"N  c #6E89B1",
"B  c #B8A86D",
"V  c None",
"C  c #C4C89C",
"Z  c #6E8DB5",
"A  c #E1AC46",
"S  c #DB9731",
"D  c #A4B8AE",
"F  c #879798",
"G  c #AA926D",
"H  c #EEC85F",
"J  c #94A1A1",
"K  c #F5EA9D",
"L  c #E7B243",
"P  c #6987B4",
"I  c #718BA4",
"U  c #8AA6B6",
"Y  c #6A89B1",
"T  c #839FB4",
"R  c #8CB0CC",
"E  c #FBE182",
"W  c #9D9F8A",
"Q  c #7F93A7",
"!  c None",
"~  c #A0AA8F",
"^  c #83898C",
"/  c #85A9C9",
"(  c #B9AC64",
")  c None",
"_  c #B88833",
"`  c #DFA13E",
"'  c None",
"]  c #BEC5A3",
"[  c #AE9C6D",
"{  c #EAB235",
"}  c None",
"|  c #F6CE53",
" . c #88A4AC",
".. c #8AABC9",
"X. c #F0CB65",
"o. c #BEAD6E",
"O. c None",
"+. c #88A2AB",
"@. c #768DA5",
"#. c #9DAAA1",
"$. c #878E88",
"%. c #DCA245",
"&. c None",
"*. c #7B8BA1",
"=. c #6788B8",
"-. c #B7B08C",
";. c None",
":. c None",
">. c None",
",. c #6A96CC",
"<. c #ECDBA2",
"1. c #ECC252",
"2. c #92A39B",
"3. c #EAC96F",
"4. c #E6B141",
"5. c #7A97B2",
"6. c #BEB273",
"7. c #8499AD",
"8. c None",
"9. c #EBD89A",
"0. c #EED161",
"q. c #DEA640",
"w. c #8D8A7C",
"e. c #768698",
"r. c None",
"t. c None",
"y. c #84A8C7",
"u. c #F9EB9B",
"i. c #838B93",
"p. c #6A8BB9",
"a. c #7F878E",
"s. c None",
"d. c #A6BDBB",
"f. c None",
"g. c None",
"h. c #DBA142",
"j. c #6B87B1",
"k. c #729FCF",
"l. c #7392B3",
"z. c #E8DFA7",
"x. c #B5A068",
"c. c #A2ACA0",
"v. c #728BA7",
"b. c #B09C69",
"n. c None",
"m. c #6B8FB9",
"M. c None",
"N. c #908D82",
"B. c None",
"V. c #78A1C9",
"C. c #EFC151",
"Z. c #C9AD68",
"A. c #6E86AD",
"S. c #C8B883",
"D. c None",
"F. c #84A1B8",
"G. c #719CC8",
"H. c #938E7F",
"J. c #88847E",
"K. c #E9BC62",
"L. c None",
"P. c #FAE179",
"I. c None",
"U. c #89A8B2",
"Y. c #BDB171",
"T. c #AC9161",
"R. c #B39E6A",
"E. c None",
"W. c #E7B960",
"Q. c #849598",
"!. c None",
"~. c None",
"^. c #879BA5",
"/. c #6988B5",
"(. c #6C87B0",
"). c #94A087",
"_. c None",
"`. c #C4983A",
"'. c None",
"]. c #779EC4",
"[. c #7F8794",
"{. c #76A1D8",
"}. c #8C9494",
"|. c #C1A657",
" X c #87A1AC",
".X c #E2A73F",
"XX c None",
"oX c #7688A0",
"OX c None",
"+X c None",
"@X c #F8CE54",
"#X c #C4D0B2",
"$X c #F5C551",
"%X c #F5C848",
"&X c #7E8D9D",
"*X c #8EA1A1",
"=X c #D89F40",
"-X c #7889A3",
";X c #8397A3",
":X c #6A8AB5",
/* pixels */
"          O.M.0 g.. B.          ",
"      * i ] q j  .~ 6._.O.      ",
"    # s.U.,.= V.]. Xl.J X >.    ",
"  * L.T k./ R d.D > % 4 ..D.O.  ",
"  ) *XG.y.#XK u.E %Xo., k 2.8   ",
"V Y.m.> C P.z.-.<.$Xc R.5.& x.OX",
"XX7 + U | p 9.S.3 H 1.q.oX&XH.f.",
"~.+.: c.e l 3.X.C.`._ ` J.N i.+X",
"n.5 {.2 a |.v L $ =X%..Xw.Z F !.",
"h #.F.7.A 4.x h.- W.r { s ^.W w ",
"OXB Y Q G S z K.Z.b @X( @.A.[ ' ",
"  } $./.-XT.O 6 9 0.u I P ^ t   ",
"  ! y e.p.;XQ.n ).< v.=.m M OX  ",
"    8.&.}.:X; N j.*.(.d t.f     ",
"      OXI.b.N.a.[.1 g @ '       ",
"          o '.;.r.:.E.          "
};
