/* XPM */
static char *graphic[] = {
/* width height num_colors chars_per_pixel */
"32 32 704 2", 
/* colors */
"   c None",
".  c None",
"X  c #F6E493",
"o  c #9EB7BB",
"O  c None",
"+  c #DD9F3E",
"@  c #F2C563",
"#  c None",
"$  c #9E9C81",
"%  c #8E9D9D",
"&  c #B88C47",
"*  c #5D90D2",
"=  c #958D81",
"-  c None",
";  c #E6A127",
":  c #A1B1A6",
">  c #EAC15C",
",  c #FBE393",
"<  c #E5CD6E",
"1  c #E1E1A8",
"2  c #6DA1DD",
"3  c #FDDA75",
"4  c #F6C03E",
"5  c #6C8198",
"6  c #7F8593",
"7  c #F9E593",
"8  c #D5C27C",
"9  c #FFDF63",
"0  c #5087D6",
"q  c #F9E8AE",
"w  c #EBB950",
"e  c #D89F42",
"r  c #538CD6",
"t  c #7B8CA3",
"y  c None",
"u  c #738BAA",
"i  c #C89442",
"p  c None",
"a  c #FFE675",
"s  c #6A8EBA",
"d  c #6292D1",
"f  c #F2C149",
"g  c #D1BD53",
"h  c #437FCF",
"j  c #84A0B3",
"k  c #FACA49",
"l  c #AA9B64",
"z  c #D98C21",
"x  c #FFD140",
"c  c #C49B4F",
"v  c #848D97",
"b  c None",
"n  c #5685CC",
"m  c #DDAA3D",
"M  c #FAE08B",
"N  c #DD9C31",
"B  c #FCD649",
"V  c #D6CDA4",
"C  c #92886B",
"Z  c #DC9833",
"A  c #FAC136",
"S  c #7293B7",
"D  c #5991DE",
"F  c #F6BB2F",
"G  c #896F34",
"H  c #5785C7",
"J  c #A8956A",
"K  c None",
"L  c #738A87",
"P  c #6096E0",
"I  c #F7CB4F",
"U  c #DCA23C",
"Y  c #7896BD",
"T  c #718EAD",
"R  c #E1B045",
"E  c #F9EFAA",
"W  c #DC9E39",
"Q  c #F9D14A",
"!  c #A59E77",
"~  c #528CDD",
"^  c #5085D6",
"/  c #D6912B",
"(  c #9DABA1",
")  c #DBB147",
"_  c #708CB1",
"`  c #FAF1BE",
"'  c #7E8A93",
"]  c None",
"[  c #DABC5E",
"{  c #9DB4CC",
"}  c #74A6E1",
"|  c #5886B8",
" . c #6590C1",
".. c #CEA44D",
"X. c #7096BA",
"o. c #A2865B",
"O. c #C3C38E",
"+. c #CDC98E",
"@. c #4F8DE3",
"#. c #FBC334",
"$. c #6191CC",
"%. c #E7BD54",
"&. c #AEA060",
"*. c #F9DD84",
"=. c #F7E09D",
"-. c #88888B",
";. c #6A90BE",
":. c #81714B",
">. c #C98C33",
",. c #A48E6F",
"<. c #DC9325",
"1. c None",
"2. c #E9B24C",
"3. c #5185D2",
"4. c #C5882E",
"5. c #A3A286",
"6. c #9EA37F",
"7. c #FCF5B8",
"8. c #F1C863",
"9. c #D79E3E",
"0. c #FDE18A",
"q. c #7F8F9F",
"w. c #5386D4",
"e. c None",
"r. c #4487EB",
"t. c None",
"y. c #D3DCB8",
"u. c None",
"i. c #5A81B6",
"p. c None",
"a. c #558FDD",
"s. c #AD9753",
"d. c None",
"f. c #6A93B6",
"g. c #5B87B6",
"h. c #C9A75B",
"j. c #5A88C8",
"k. c #6289C1",
"l. c #9EB1A3",
"z. c #A0A07E",
"x. c #EEBC52",
"c. c #C3AB4C",
"v. c #F8D679",
"b. c #CDCBA9",
"n. c #4F7FC1",
"m. c #4C87D8",
"M. c #E9A82D",
"N. c #DAB750",
"B. c #DA8E21",
"V. c #C2BD90",
"C. c None",
"Z. c #F4BE34",
"A. c #4888E3",
"S. c #7C908E",
"D. c #FAE8AD",
"F. c #568BD5",
"G. c #AFA584",
"H. c None",
"J. c #6C97C7",
"K. c #DAA031",
"L. c #7C94A9",
"P. c #BA9B5A",
"I. c #F4C750",
"U. c #C0B459",
"Y. c #6198E0",
"T. c #A9C1D4",
"R. c #EBBD4C",
"E. c #4B84D0",
"W. c #B19151",
"Q. c None",
"!. c #E1B541",
"~. c #D2A13F",
"^. c #4F84D2",
"/. c #E1C768",
"(. c #587EB4",
"). c #838891",
"_. c None",
"`. c #7096BD",
"'. c #FDC83C",
"]. c #E1A640",
"[. c #A1B5AF",
"{. c #558DDD",
"}. c #EDE7A1",
"|. c #4888E4",
" X c #D2B34A",
".X c None",
"XX c #E5B359",
"oX c #EAB759",
"OX c #4885D6",
"+X c #F0CB79",
"@X c #E5C877",
"#X c #DCD996",
"$X c #5C82BA",
"%X c #9D9177",
"&X c None",
"*X c #FBC539",
"=X c #E2C74C",
"-X c #DBA246",
";X c #4B7FC1",
":X c #5083C1",
">X c #4685E1",
",X c #F8E5AB",
"<X c #907A40",
"1X c None",
"2X c #718AAE",
"3X c #6188BC",
"4X c None",
"5X c #5792E3",
"6X c None",
"7X c #ECDF89",
"8X c None",
"9X c #5E8DC5",
"0X c #5290E5",
"qX c #769DC7",
"wX c #F9E5A6",
"eX c #8B8B8D",
"rX c #F7D568",
"tX c #4580D7",
"yX c #6695D0",
"uX c #4D89D7",
"iX c #4386E7",
"pX c #F9C948",
"aX c None",
"sX c #DC9E3E",
"dX c #A6906A",
"fX c #E5C05A",
"gX c #FECA3A",
"hX c #5682C4",
"jX c #A0B0A6",
"kX c #C89040",
"lX c #DD9122",
"zX c #EDCC71",
"xX c #5A8ACD",
"cX c #6298DD",
"vX c #DBA449",
"bX c #9EA691",
"nX c #6C88B1",
"mX c #658AC1",
"MX c None",
"NX c #4288EF",
"BX c #ACA367",
"VX c #D09A3F",
"CX c #578CC8",
"ZX c None",
"AX c #EDCB74",
"SX c None",
"DX c None",
"FX c #3F82E3",
"GX c None",
"HX c #E0DB99",
"JX c #F5D37F",
"KX c #C2A05A",
"LX c #E5C973",
"PX c #FAD85D",
"IX c #CBA756",
"UX c #D4AC4C",
"YX c #C4BE96",
"TX c None",
"RX c #5F92D2",
"EX c None",
"WX c None",
"QX c #6193D4",
"!X c #F7DC71",
"~X c #EFBB45",
"^X c #5C85B4",
"/X c None",
"(X c #C2D3BF",
")X c #88A5B6",
"_X c None",
"`X c #4985D4",
"'X c #CDCAA1",
"]X c #F9ECA3",
"[X c #F3D27E",
"{X c #99B4D1",
"}X c #6485B8",
"|X c None",
" o c #E1B159",
".o c None",
"Xo c #FECC3E",
"oo c #EAC14E",
"Oo c #B58B52",
"+o c #B59869",
"@o c #B79550",
"#o c #B5975E",
"$o c None",
"%o c #7698BA",
"&o c #A09A7E",
"*o c #E4B054",
"=o c #C89A4B",
"-o c #DDB650",
";o c None",
":o c #DC972F",
">o c #5E8ABA",
",o c #5990DA",
"<o c #E4B642",
"1o c #74869E",
"2o c None",
"3o c #FBE789",
"4o c #E3A438",
"5o c #A59A7B",
"6o c #DD9C3A",
"7o c #5287D5",
"8o c #C0954F",
"9o c #6795CE",
"0o c #E8C266",
"qo c #3E84EC",
"wo c #D1B864",
"eo c #BB863A",
"ro c #FBD54B",
"to c #79869B",
"yo c #6195D7",
"uo c #5289D7",
"io c #DCC36D",
"po c #578DD7",
"ao c #3E86EE",
"so c #93A09B",
"do c #EAD07F",
"fo c #5691E0",
"go c #CDC794",
"ho c #EDAB2C",
"jo c #D1D19D",
"ko c #D8A13F",
"lo c #866931",
"zo c #C59243",
"xo c #ACAA64",
"co c #4B82D4",
"vo c #EEB037",
"bo c #5887CD",
"no c #F4DC83",
"mo c #F0C965",
"Mo c #CA9039",
"No c None",
"Bo c #FEEC8A",
"Vo c #EAB747",
"Co c #E7BA4E",
"Zo c #5F87BF",
"Ao c #5282C6",
"So c #5287D6",
"Do c #D2D08E",
"Fo c #D7AF4C",
"Go c #DB9D3B",
"Ho c #5088D6",
"Jo c #F7CA57",
"Ko c None",
"Lo c #7A9CC1",
"Po c #E1A444",
"Io c #3D83E6",
"Uo c #CCCA91",
"Yo c #BDB57C",
"To c #DEAA42",
"Ro c None",
"Eo c #4F82BF",
"Wo c None",
"Qo c #7EA4CA",
"!o c #8197A3",
"~o c #DCB34E",
"^o c #C7C197",
"/o c None",
"(o c #578FDA",
")o c #507FC3",
"_o c #E6CF76",
"`o c #BEBF97",
"'o c None",
"]o c #5983C5",
"[o c #6386B5",
"{o c #80989E",
"}o c #FBEC9B",
"|o c #5390E5",
" O c #8097A9",
".O c #9C742F",
"XO c #528FDE",
"oO c #DEAB38",
"OO c #4E89D7",
"+O c #B3A46A",
"@O c #EDA92C",
"#O c #C7983A",
"$O c #457FD0",
"%O c #DB9227",
"&O c None",
"*O c #D29537",
"=O c #6B90AB",
"-O c #C7C48F",
";O c #578ACB",
":O c #61839B",
">O c #878B91",
",O c #D69D40",
"<O c None",
"1O c #F6DB85",
"2O c #5086D6",
"3O c #5390E6",
"4O c #E0C775",
"5O c None",
"6O c #E19824",
"7O c #728A98",
"8O c #3C83ED",
"9O c None",
"0O c #548EDF",
"qO c #4285E6",
"wO c #CA9E4B",
"eO c #F1B22B",
"rO c #F5C549",
"tO c #FAC949",
"yO c #DAB853",
"uO c None",
"iO c #6D94BC",
"pO c #BC9954",
"aO c #DC9828",
"sO c #E1A648",
"dO c #F4C85D",
"fO c #D7BF73",
"gO c #E2C474",
"hO c #6F95BE",
"jO c #EDC55D",
"kO c #5F849C",
"lO c #708BB0",
"zO c #4787E5",
"xO c #FFD954",
"cO c #7D6734",
"vO c None",
"bO c #C8A14F",
"nO c #FDE984",
"mO c #4C88D7",
"MO c None",
"NO c #558CD9",
"BO c #A8B69F",
"VO c #6092D2",
"CO c #F6E07F",
"ZO c None",
"AO c #8D876F",
"SO c #4F82C2",
"DO c #B3894A",
"FO c None",
"GO c #769EC4",
"HO c #3E81E2",
"JO c #A8A181",
"KO c #BB9851",
"LO c #9EA698",
"PO c #3F84EB",
"IO c #FAEF9A",
"UO c #AABECA",
"YO c #5389D6",
"TO c #5E8ABF",
"RO c #76889A",
"EO c #4084E6",
"WO c #C6C58D",
"QO c #A5BCCC",
"!O c #6E86AC",
"~O c None",
"^O c #D1B15A",
"/O c #BB8E49",
"(O c #5789C1",
")O c #6085BC",
"_O c #FCD562",
"`O c #859097",
"'O c #CCC692",
"]O c #618BBC",
"[O c #4584E3",
"{O c #FEF4C4",
"}O c #CBB872",
"|O c #E4B65F",
" + c None",
".+ c #6087BE",
"X+ c #D7CEA5",
"o+ c #7D91A0",
"O+ c #5888C7",
"++ c #CBCC9B",
"@+ c #5693E7",
"#+ c #B89553",
"$+ c None",
"%+ c #F9C441",
"&+ c #588FD9",
"*+ c #ECE396",
"=+ c #FACA41",
"-+ c #F3D37A",
";+ c #F6C143",
":+ c #E3CF8B",
">+ c #7896B4",
",+ c #AD9A6E",
"<+ c #A7A171",
"1+ c #ADBFC8",
"2+ c #B88D4D",
"3+ c #FFD043",
"4+ c #97B0C8",
"5+ c #F4B72E",
"6+ c #FDC93C",
"7+ c #D4C78A",
"8+ c #5F8CBD",
"9+ c #DDBF56",
"0+ c #DFA840",
"q+ c None",
"w+ c #A7BDB8",
"e+ c #FFE89E",
"r+ c #F4CF62",
"t+ c #C99743",
"y+ c None",
"u+ c #848E9C",
"i+ c #7F8A9C",
"p+ c None",
"a+ c #3F86EF",
"s+ c #518FE8",
"d+ c #D2973D",
"f+ c #6393D1",
"g+ c None",
"h+ c #6491CA",
"j+ c #5C95E1",
"k+ c #87B2DA",
"l+ c #F9BF32",
"z+ c #FBEEB9",
"x+ c #4885E1",
"c+ c #E7A026",
"v+ c #7B6837",
"b+ c #9F9362",
"n+ c #779BB3",
"m+ c #A5BAB5",
"M+ c #84AACC",
"N+ c #EFBB4D",
"B+ c #598DD3",
"V+ c #5789C3",
"C+ c #B7812F",
"Z+ c #A0A382",
"A+ c #7D9CB7",
"S+ c #3D83EC",
"D+ c #4385E5",
"F+ c #FFD246",
"G+ c #4F89D7",
"H+ c #F9BD31",
"J+ c #7693B2",
"K+ c None",
"L+ c #EFD688",
"P+ c #EEC063",
"I+ c #9D8A71",
"U+ c #7CA7D2",
"Y+ c #568ED9",
"T+ c #ECB233",
"R+ c #5C88CB",
"E+ c #4F90E9",
"W+ c #658FC4",
"Q+ c #E2AE4E",
"!+ c #F4B52E",
"~+ c #4784DB",
"^+ c #C1A15C",
"/+ c #CDC986",
"(+ c #73A4DD",
")+ c #6D85A8",
"_+ c #F0D07E",
"`+ c #96B0B8",
"'+ c #F6C347",
"]+ c #E6A632",
"[+ c #4385E6",
"{+ c #FEF7BE",
"}+ c #E3A844",
"|+ c #998C72",
" @ c #FAF1B7",
".@ c #B98F4C",
"X@ c #DA9E3D",
"o@ c #E7B04D",
"O@ c None",
"+@ c #988672",
"@@ c #E3AF56",
"#@ c #F4B32D",
"$@ c #E4C568",
"%@ c #CB8F2F",
"&@ c #5791E3",
"*@ c #EFC154",
"=@ c #BF882F",
"-@ c #F4D77B",
";@ c #5683C5",
":@ c #E6C35C",
">@ c #FAD464",
",@ c #9F8C52",
"<@ c #F6D076",
"1@ c #EAAD2F",
"2@ c None",
"3@ c #E7A22A",
"4@ c #FBF3B4",
"5@ c #4985DE",
"6@ c #C2B474",
"7@ c #AB9168",
"8@ c #85AFD9",
"9@ c #EDE394",
"0@ c #5F96E0",
"q@ c #EBBF51",
"w@ c #7FAAD2",
"e@ c #7AA6D2",
"r@ c #E1AE55",
"t@ c #F5CF58",
"y@ c #E0BF46",
"u@ c #C7C8B2",
"i@ c None",
"p@ c #CDC786",
"a@ c None",
"s@ c #5791E4",
"d@ c None",
"f@ c None",
"g@ c None",
"h@ c #3F83E4",
"j@ c #908A73",
"k@ c #DCD0A5",
"l@ c #FFD865",
"z@ c #5489D6",
"x@ c #6F8B8D",
"c@ c None",
"v@ c #78949F",
"b@ c #F2C050",
"n@ c #E2A33B",
"m@ c None",
"M@ c #F7BA30",
"N@ c #E1D583",
"B@ c #FECD3E",
"V@ c #F8D470",
"C@ c #548BD8",
"Z@ c #618BC1",
"A@ c None",
"S@ c #828D9E",
"D@ c #E4D992",
"F@ c #538FE1",
"G@ c #E8D699",
"H@ c #FED652",
"J@ c #5B92DC",
"K@ c #E19E31",
"L@ c None",
"P@ c #FDDC74",
"I@ c #4583DC",
"U@ c #8F8984",
"Y@ c #7695B7",
"T@ c #4A82CC",
"R@ c #748787",
"E@ c #FCC436",
"W@ c None",
"Q@ c #85A3B9",
"!@ c #C59231",
"~@ c #D89B3C",
"^@ c #E0C34B",
"/@ c #648EC0",
"(@ c #558AC7",
")@ c #F4CF5F",
"_@ c #4E84D0",
"`@ c #77A7D9",
"'@ c #F3C651",
"]@ c #F5D268",
"[@ c #D0AF61",
"{@ c #D2C87A",
"}@ c #4D88D9",
"|@ c #D4A543",
" # c #E3C246",
".# c #FBE391",
"X# c #F3D368",
"o# c #F4D54D",
"O# c #FCE18A",
"+# c #FCDC7A",
"@# c #538FE2",
"## c #7F98AD",
"$# c #ABAE8F",
"%# c #E9BB43",
"&# c #FDE493",
"*# c #9FAC9F",
"=# c #DFC25F",
"-# c None",
";# c None",
":# c #E1B955",
"># c #F5D375",
",# c None",
"<# c None",
"1# c #FEED8A",
"2# c #548FDD",
"3# c #A6916E",
"4# c #B18540",
"5# c #F4CA67",
"6# c None",
"7# c #719ECF",
"8# c #3E85ED",
"9# c #4E82CF",
"0# c #E4DD97",
"q# c #5690DF",
"w# c #5988C8",
"e# c #6B91C1",
"r# c #578ED8",
"t# c #D9A232",
"y# c #E8B342",
"u# c #AE8A49",
"i# c #5587D1",
"p# c #5D83BA",
"a# c #B98F4F",
"s# c #A9A570",
"d# c #94B3D5",
"f# c #7FA3C3",
"g# c None",
"h# c None",
"j# c #F5EEB0",
"k# c #B99353",
"l# c #FCE18B",
"z# c None",
"x# c None",
"c# c #488BEC",
"v# c #F1D374",
"b# c #DDB24B",
"n# c #658DC7",
"m# c #6D89B0",
"M# c #E0A841",
"N# c #E8A93A",
"B# c #758DA0",
"V# c #E9D696",
"C# c None",
"Z# c #F9E08F",
/* pixels */
"                                                                ",
"                        ;oMX4Xx#x#<#.XDX                        ",
"                  $+;#g@X D@Do+.p@{@< r+b c@$+                  ",
"              MOFO7 #XBOn+CXOXuXmO`X8+v@s#9+Jo$oMO              ",
"            - Q.0#l.(@Io2 w@0Xm+[.@.jXj h@>oZ+LX9ODX            ",
"          /X2oUof.XO`@5Xw+++F@: ( ~ YobX(o*#h+iO'XKoa@          ",
"        DXp.WOV+aoU+HX7#q#yo@+Y.cXE+Y+iX9o8 LoNXQXu@~OW@        ",
"      MO<O/+(Oe@o foqXj+k+(X1 *+7XN@O.)Xa.{.s@T.d#VOgo] MO      ",
"      O _o=O8#`+-O,o} y.IO1#nO3o!XH@3+=+wo`.c#1+4+a+X.$@No      ",
"    . rX6.r f#2#&+8@}.Bo}o]XE 7. @O#'.#.l+<o Or.D Q@$.z.R.L@    ",
"    i@=#| GO/.%o(+9@a CO4@j#V.^o` z+'+F 5+eOm s RX[ % TOFo2@    ",
"    K+BXHOY+hOJ@jo9 xOno{+YX&oj@k@,X~XdOmoVoM.pO0 W+uoD+J ZO    ",
"  uOI.S.J.$#r#M+PXF+B@3 {OV AOC G@_+8.+#l@_Ox.aO1o|.5oq.ROkot.  ",
"  g#:@g.A+}Od `oXo6+k rO[Xq V#L+*.> >@oo!.4 w <.o.3.dX).$Xt+1.  ",
"  aXfOE.@#0O3Oio*Xv.D.=.AX0o-+P@jO'@%#G lo!@o@:oeotX^ x+co.@|X  ",
"  8X'OOOQOUOP fXf wXe+M 4O]@q@%.Co;+t#.O=@C+sOsX4.)oS@3#H #+K   ",
"  _.b.}@{X{ 0@:#b@&#v#,@<XpXtOR To0+].*OZ 6o@@W %@n.t %Xw#KX&X  ",
"  C.X+m.s+&@|o[@voV@N.v+cOoOy#U n@X@,OvXr@|OQ+3@#O$ONOzOG+^OZX  ",
"  TX:+9XQo7+yXG.; *@%+T+K.M#9.+ >.d+*oXX4o]+ho#@s.;O6@so .yORo  ",
"  . zX{of+LOC@Y N 2.N+N#}+e e Po4#u#P+JX@ !+H+Z.R@A.5.L.!ob# +  ",
"    5O+OFXB+>+po+o%OGo-X~@/  ooXW.:.gO0.>#E@gXc.SOe#YOqO,+'o    ",
"    -#) ^XJ+|@_ n#kXz B.lXK@+X<@@Xdol#, )@x  #:OxX=o>OZowOz#    ",
"    p 1Xb+_@m#7oR+2XMo6Oc+@O5#Z#.#1O-@X#ro=XL ~+i#!O]o|+6Xh#    ",
"      m@~.5 S+eXOon [o@o1@M@A I t@Q B o#U.kOI@,.U@PO)+zou.      ",
"      &OC#& (.}X6 z@##O+7O&. Xy@^@g xox@;Xbow.-.to)Oa#vO#       ",
"        . d@DOi.8OY@-oS * /@T@:XEoh Ao>XmX8olOqo.+#oO@GX        ",
"          y y+c B#Ho;.F.JO^+Sou+i+So7@= 2O`Oj.T P.H.f@          ",
"            GXq+~o<+]OEOk.nX5@I++@[Ov u [+Z@$ IXA@GX            ",
"              # .o6#UXl ' p#9#hX;@^.3Xo+! h._XEX#               ",
"                  h#d.e.VXi /O2+k#KObO../oWoh#                  ",
"                        WXp+,#g+g+WoSXWX                        ",
"                                                                "
};
